<svg width="298" height="282" viewBox="0 0 298 282" fill="none" xmlns="http://www.w3.org/2000/svg">
<g opacity="0.4">
<rect x="56" y="9" width="242" height="1" fill="#E4E4E4"/>
<rect x="56" y="64" width="242" height="1" fill="#E4E4E4"/>
<rect x="56" y="118" width="242" height="1" fill="#E4E4E4"/>
<rect x="56" y="173" width="242" height="1" fill="#E4E4E4"/>
<rect x="56" y="228" width="242" height="1" fill="#E4E4E4"/>
</g>
<g clip-path="url(#clip0)">
<rect x="56" y="25.5" width="20" height="203" fill="#6C5DD3"/>
<rect x="80" y="90.75" width="20" height="138" fill="#A0D7E7"/>
</g>
<g clip-path="url(#clip1)">
<rect x="135" y="107.25" width="20" height="121.5" fill="#6C5DD3"/>
<rect x="159" y="138.75" width="20" height="90" fill="#A0D7E7"/>
</g>
<path d="M4.68572 4.54545H3.05611L0.706321 6.05504V7.62464L2.91761 6.212H2.97301V14H4.68572V4.54545ZM10.581 14.18C12.8615 14.1847 14.2234 12.3842 14.2234 9.28196C14.2234 6.19815 12.8523 4.41619 10.581 4.41619C8.30966 4.41619 6.94318 6.19354 6.93857 9.28196C6.93857 12.3796 8.30043 14.18 10.581 14.18ZM10.581 12.7351C9.40376 12.7351 8.66513 11.5533 8.66974 9.28196C8.67436 7.02912 9.40838 5.84268 10.581 5.84268C11.7582 5.84268 12.4922 7.02912 12.4968 9.28196C12.4968 11.5533 11.7628 12.7351 10.581 12.7351ZM19.2519 14.18C21.5324 14.1847 22.8943 12.3842 22.8943 9.28196C22.8943 6.19815 21.5232 4.41619 19.2519 4.41619C16.9806 4.41619 15.6141 6.19354 15.6095 9.28196C15.6095 12.3796 16.9713 14.18 19.2519 14.18ZM19.2519 12.7351C18.0747 12.7351 17.336 11.5533 17.3406 9.28196C17.3453 7.02912 18.0793 5.84268 19.2519 5.84268C20.4291 5.84268 21.1631 7.02912 21.1677 9.28196C21.1677 11.5533 20.4337 12.7351 19.2519 12.7351ZM24.4466 14H26.1177V11.6179L26.7271 10.967L28.8968 14H30.8958L27.9874 9.96982L30.7342 6.90909H28.7814L26.2331 9.75746H26.1177V4.54545H24.4466V14Z" fill="#808191"/>
<path d="M4.20099 67.0043C6.24609 67.0043 7.70952 65.8778 7.71413 64.3406C7.70952 63.1587 6.837 62.1708 5.73828 61.9862V61.9215C6.69389 61.7092 7.35866 60.8505 7.36328 59.8256C7.35866 58.3714 6.01989 57.2912 4.20099 57.2912C2.36825 57.2912 1.02947 58.3668 1.03409 59.8256C1.02947 60.8505 1.68501 61.7092 2.65909 61.9215V61.9862C1.5419 62.1708 0.678622 63.1587 0.683239 64.3406C0.678622 65.8778 2.13743 67.0043 4.20099 67.0043ZM4.20099 65.6839C3.12997 65.6839 2.4375 65.093 2.44673 64.2205C2.4375 63.3157 3.18075 62.674 4.20099 62.674C5.20739 62.674 5.94602 63.3203 5.95526 64.2205C5.94602 65.093 5.25817 65.6839 4.20099 65.6839ZM4.20099 61.3768C3.32386 61.3768 2.69602 60.8089 2.70526 59.9872C2.69602 59.1747 3.3054 58.63 4.20099 58.63C5.08274 58.63 5.6875 59.1747 5.69673 59.9872C5.6875 60.8136 5.06428 61.3768 4.20099 61.3768ZM12.7265 67.055C15.007 67.0597 16.3689 65.2592 16.3689 62.157C16.3689 59.0732 14.9978 57.2912 12.7265 57.2912C10.4552 57.2912 9.08869 59.0685 9.08407 62.157C9.08407 65.2546 10.4459 67.055 12.7265 67.055ZM12.7265 65.6101C11.5493 65.6101 10.8106 64.4283 10.8153 62.157C10.8199 59.9041 11.5539 58.7177 12.7265 58.7177C13.9037 58.7177 14.6377 59.9041 14.6423 62.157C14.6423 64.4283 13.9083 65.6101 12.7265 65.6101ZM17.9212 66.875H19.5923V64.4929L20.2017 63.842L22.3714 66.875H24.3704L21.462 62.8448L24.2088 59.7841H22.256L19.7077 62.6325H19.5923V57.4205H17.9212V66.875Z" fill="#808191"/>
<path d="M4.30256 119.879C6.34304 119.893 7.71413 118.49 7.70952 116.62C7.71413 114.833 6.43999 113.541 4.78267 113.541C3.76705 113.541 2.87145 114.035 2.41903 114.847H2.3544C2.35902 112.858 3.08842 111.648 4.3995 111.648C5.212 111.648 5.76136 112.119 5.93679 112.844H7.6218C7.41868 111.316 6.18608 110.166 4.3995 110.166C2.1282 110.166 0.692472 112.059 0.692472 115.29C0.687855 118.757 2.48828 119.87 4.30256 119.879ZM4.29332 118.494C3.28232 118.494 2.54368 117.659 2.53906 116.671C2.5483 115.678 3.31463 114.847 4.31641 114.847C5.31818 114.847 6.0522 115.641 6.04759 116.657C6.0522 117.691 5.2951 118.494 4.29332 118.494ZM12.7646 119.93C15.0451 119.935 16.407 118.134 16.407 115.032C16.407 111.948 15.0359 110.166 12.7646 110.166C10.4933 110.166 9.12678 111.944 9.12216 115.032C9.12216 118.13 10.484 119.93 12.7646 119.93ZM12.7646 118.485C11.5874 118.485 10.8487 117.303 10.8533 115.032C10.858 112.779 11.592 111.593 12.7646 111.593C13.9418 111.593 14.6758 112.779 14.6804 115.032C14.6804 117.303 13.9464 118.485 12.7646 118.485ZM17.9593 119.75H19.6304V117.368L20.2398 116.717L22.4095 119.75H24.4085L21.5001 115.72L24.2469 112.659H22.2941L19.7458 115.507H19.6304V110.295H17.9593V119.75Z" fill="#808191"/>
<path d="M0.669389 170.871H5.17969V172.625H6.81392V170.871H8.02344V169.463H6.81392V163.17H4.68111L0.669389 169.509V170.871ZM5.19815 169.463H2.42365V169.389L5.12429 165.109H5.19815V169.463ZM12.9931 172.805C15.2736 172.81 16.6355 171.009 16.6355 167.907C16.6355 164.823 15.2644 163.041 12.9931 163.041C10.7218 163.041 9.35529 164.819 9.35067 167.907C9.35067 171.005 10.7125 172.805 12.9931 172.805ZM12.9931 171.36C11.8159 171.36 11.0772 170.178 11.0819 167.907C11.0865 165.654 11.8205 164.468 12.9931 164.468C14.1703 164.468 14.9043 165.654 14.9089 167.907C14.9089 170.178 14.1749 171.36 12.9931 171.36ZM18.1878 172.625H19.8589V170.243L20.4683 169.592L22.6381 172.625H24.637L21.7286 168.595L24.4754 165.534H22.5226L19.9743 168.382H19.8589V163.17H18.1878V172.625Z" fill="#808191"/>
<path d="M4.33487 225.68C6.61541 225.685 7.97727 223.884 7.97727 220.782C7.97727 217.698 6.60618 215.916 4.33487 215.916C2.06357 215.916 0.697088 217.694 0.692472 220.782C0.692472 223.88 2.05433 225.68 4.33487 225.68ZM4.33487 224.235C3.15767 224.235 2.41903 223.053 2.42365 220.782C2.42827 218.529 3.16229 217.343 4.33487 217.343C5.51207 217.343 6.24609 218.529 6.25071 220.782C6.25071 223.053 5.51669 224.235 4.33487 224.235Z" fill="#808191"/>
<g clip-path="url(#clip2)">
<rect x="214" y="142.5" width="20" height="86.25" fill="#6C5DD3"/>
<rect x="238" y="165" width="20" height="63.75" fill="#A0D7E7"/>
</g>
<path d="M57.2663 270.815H59.0114C58.7205 268.959 57.114 267.666 55.0227 267.666C52.5483 267.666 50.6925 269.485 50.6925 272.532C50.6925 275.523 52.4652 277.379 55.0735 277.379C57.4141 277.379 59.0898 275.874 59.0898 273.437V272.301H55.2536V273.64H57.4325C57.4048 274.988 56.5046 275.842 55.0827 275.842C53.4993 275.842 52.4144 274.656 52.4144 272.513C52.4144 270.385 53.5178 269.203 55.0458 269.203C56.1861 269.203 56.9616 269.813 57.2663 270.815ZM60.6721 277.25H62.3433V273.081C62.3433 272.181 63.0219 271.544 63.9406 271.544C64.2222 271.544 64.5731 271.595 64.7162 271.641V270.104C64.5638 270.076 64.3007 270.058 64.116 270.058C63.3035 270.058 62.6249 270.519 62.3664 271.341H62.2925V270.159H60.6721V277.25ZM67.7273 277.393C68.8398 277.393 69.5046 276.871 69.8093 276.276H69.8647V277.25H71.4712V272.504C71.4712 270.63 69.9432 270.067 68.5906 270.067C67.0994 270.067 65.9545 270.732 65.5852 272.024L67.1456 272.246C67.3118 271.761 67.7827 271.346 68.5998 271.346C69.3754 271.346 69.8001 271.743 69.8001 272.44V272.467C69.8001 272.947 69.2969 272.971 68.0458 273.104C66.6701 273.252 65.3544 273.663 65.3544 275.26C65.3544 276.654 66.3746 277.393 67.7273 277.393ZM68.1612 276.165C67.4641 276.165 66.9656 275.847 66.9656 275.233C66.9656 274.591 67.5241 274.323 68.272 274.217C68.7106 274.157 69.5877 274.046 69.8047 273.871V274.706C69.8047 275.496 69.1676 276.165 68.1612 276.165ZM73.1516 279.909H74.8228V276.133H74.892C75.1552 276.65 75.7045 277.375 76.9233 277.375C78.5945 277.375 79.8455 276.05 79.8455 273.714C79.8455 271.35 78.5575 270.067 76.9187 270.067C75.6676 270.067 75.146 270.819 74.892 271.332H74.7951V270.159H73.1516V279.909ZM74.7905 273.705C74.7905 272.329 75.3814 271.438 76.457 271.438C77.5696 271.438 78.142 272.384 78.142 273.705C78.142 275.034 77.5604 276.004 76.457 276.004C75.3906 276.004 74.7905 275.08 74.7905 273.705ZM82.9478 273.095C82.9478 272.07 83.5849 271.479 84.4805 271.479C85.3576 271.479 85.8746 272.038 85.8746 272.994V277.25H87.5458V272.735C87.5458 271.022 86.5763 270.067 85.1037 270.067C84.0142 270.067 83.3217 270.561 82.994 271.364H82.9109V267.795H81.2766V277.25H82.9478V273.095ZM89.2493 277.25H90.9205V270.159H89.2493V277.25ZM90.0895 269.153C90.6204 269.153 91.0543 268.746 91.0543 268.248C91.0543 267.745 90.6204 267.338 90.0895 267.338C89.554 267.338 89.12 267.745 89.12 268.248C89.12 268.746 89.554 269.153 90.0895 269.153ZM95.732 277.388C97.5139 277.388 98.6496 276.331 98.7696 274.826H97.1723C97.0292 275.588 96.4798 276.027 95.7458 276.027C94.7025 276.027 94.0285 275.154 94.0285 273.705C94.0285 272.273 94.7164 271.415 95.7458 271.415C96.5491 271.415 97.0431 271.932 97.1723 272.615H98.7696C98.6542 271.078 97.4539 270.067 95.7227 270.067C93.6453 270.067 92.3343 271.567 92.3343 273.732C92.3343 275.879 93.613 277.388 95.732 277.388ZM105.746 272.033C105.515 270.833 104.555 270.067 102.893 270.067C101.185 270.067 100.022 270.907 100.026 272.218C100.022 273.252 100.659 273.935 102.021 274.217L103.23 274.471C103.881 274.614 104.186 274.877 104.186 275.279C104.186 275.763 103.66 276.128 102.866 276.128C102.099 276.128 101.601 275.796 101.458 275.159L99.8279 275.316C100.036 276.618 101.13 277.388 102.87 277.388C104.643 277.388 105.894 276.47 105.899 275.126C105.894 274.115 105.243 273.497 103.904 273.206L102.695 272.947C101.975 272.786 101.688 272.537 101.693 272.126C101.688 271.646 102.219 271.313 102.916 271.313C103.687 271.313 104.094 271.733 104.223 272.2L105.746 272.033Z" fill="#808191"/>
<path d="M135.517 269.231H138.439V277.25H140.138V269.231H143.06V267.795H135.517V269.231ZM146.112 273.095C146.112 272.07 146.749 271.479 147.645 271.479C148.522 271.479 149.039 272.038 149.039 272.994V277.25H150.71V272.735C150.71 271.022 149.74 270.067 148.268 270.067C147.178 270.067 146.486 270.561 146.158 271.364H146.075V267.795H144.441V277.25H146.112V273.095ZM155.553 277.388C157.205 277.388 158.341 276.581 158.636 275.348L157.076 275.173C156.85 275.773 156.296 276.087 155.576 276.087C154.495 276.087 153.78 275.376 153.766 274.162H158.706V273.649C158.706 271.161 157.21 270.067 155.465 270.067C153.434 270.067 152.109 271.558 152.109 273.746C152.109 275.971 153.415 277.388 155.553 277.388ZM153.771 273.035C153.821 272.13 154.491 271.369 155.488 271.369C156.448 271.369 157.094 272.07 157.104 273.035H153.771ZM160.119 277.25H161.791V272.938C161.791 272.066 162.372 271.475 163.092 271.475C163.799 271.475 164.283 271.95 164.283 272.68V277.25H165.922V272.827C165.922 272.029 166.398 271.475 167.206 271.475C167.88 271.475 168.415 271.872 168.415 272.749V277.25H170.091V272.49C170.091 270.907 169.177 270.067 167.875 270.067C166.846 270.067 166.061 270.575 165.747 271.364H165.673C165.401 270.561 164.713 270.067 163.757 270.067C162.806 270.067 162.095 270.556 161.8 271.364H161.717V270.159H160.119V277.25ZM174.926 277.388C176.578 277.388 177.714 276.581 178.009 275.348L176.449 275.173C176.223 275.773 175.669 276.087 174.949 276.087C173.868 276.087 173.153 275.376 173.139 274.162H178.079V273.649C178.079 271.161 176.583 270.067 174.838 270.067C172.807 270.067 171.482 271.558 171.482 273.746C171.482 275.971 172.788 277.388 174.926 277.388ZM173.144 273.035C173.194 272.13 173.864 271.369 174.861 271.369C175.821 271.369 176.468 272.07 176.477 273.035H173.144Z" fill="#808191"/>
<path d="M207.042 269.231H209.965V277.25H211.664V269.231H214.586V267.795H207.042V269.231ZM218.077 277.388C219.73 277.388 220.865 276.581 221.161 275.348L219.6 275.173C219.374 275.773 218.82 276.087 218.1 276.087C217.02 276.087 216.304 275.376 216.29 274.162H221.23V273.649C221.23 271.161 219.734 270.067 217.989 270.067C215.958 270.067 214.633 271.558 214.633 273.746C214.633 275.971 215.94 277.388 218.077 277.388ZM216.295 273.035C216.346 272.13 217.015 271.369 218.012 271.369C218.973 271.369 219.619 272.07 219.628 273.035H216.295ZM222.644 277.25H224.315V272.938C224.315 272.066 224.897 271.475 225.617 271.475C226.323 271.475 226.808 271.95 226.808 272.68V277.25H228.447V272.827C228.447 272.029 228.922 271.475 229.73 271.475C230.404 271.475 230.94 271.872 230.94 272.749V277.25H232.615V272.49C232.615 270.907 231.701 270.067 230.4 270.067C229.37 270.067 228.585 270.575 228.271 271.364H228.197C227.925 270.561 227.237 270.067 226.282 270.067C225.331 270.067 224.62 270.556 224.324 271.364H224.241V270.159H222.644V277.25ZM234.311 279.909H235.982V276.133H236.051C236.314 276.65 236.864 277.375 238.082 277.375C239.754 277.375 241.005 276.05 241.005 273.714C241.005 271.35 239.717 270.067 238.078 270.067C236.827 270.067 236.305 270.819 236.051 271.332H235.954V270.159H234.311V279.909ZM235.95 273.705C235.95 272.329 236.541 271.438 237.616 271.438C238.729 271.438 239.301 272.384 239.301 273.705C239.301 275.034 238.72 276.004 237.616 276.004C236.55 276.004 235.95 275.08 235.95 273.705ZM244.107 267.795H242.436V277.25H244.107V267.795ZM247.866 277.393C248.979 277.393 249.643 276.871 249.948 276.276H250.003V277.25H251.61V272.504C251.61 270.63 250.082 270.067 248.729 270.067C247.238 270.067 246.093 270.732 245.724 272.024L247.284 272.246C247.45 271.761 247.921 271.346 248.738 271.346C249.514 271.346 249.939 271.743 249.939 272.44V272.467C249.939 272.947 249.436 272.971 248.184 273.104C246.809 273.252 245.493 273.663 245.493 275.26C245.493 276.654 246.513 277.393 247.866 277.393ZM248.3 276.165C247.603 276.165 247.104 275.847 247.104 275.233C247.104 274.591 247.663 274.323 248.411 274.217C248.849 274.157 249.726 274.046 249.943 273.871V274.706C249.943 275.496 249.306 276.165 248.3 276.165ZM256.831 270.159H255.432V268.46H253.761V270.159H252.755V271.452H253.761V275.394C253.752 276.728 254.721 277.384 255.977 277.347C256.453 277.333 256.78 277.241 256.96 277.181L256.679 275.874C256.586 275.897 256.397 275.939 256.189 275.939C255.769 275.939 255.432 275.791 255.432 275.117V271.452H256.831V270.159ZM261.292 277.388C262.945 277.388 264.08 276.581 264.376 275.348L262.815 275.173C262.589 275.773 262.035 276.087 261.315 276.087C260.235 276.087 259.519 275.376 259.505 274.162H264.445V273.649C264.445 271.161 262.949 270.067 261.204 270.067C259.173 270.067 257.848 271.558 257.848 273.746C257.848 275.971 259.154 277.388 261.292 277.388ZM259.51 273.035C259.561 272.13 260.23 271.369 261.227 271.369C262.187 271.369 262.834 272.07 262.843 273.035H259.51Z" fill="#808191"/>
<defs>
<clipPath id="clip0">
<rect width="44" height="204" fill="white" transform="translate(56 25.5)"/>
</clipPath>
<clipPath id="clip1">
<rect width="44" height="122" fill="white" transform="translate(135 107.25)"/>
</clipPath>
<clipPath id="clip2">
<rect width="44" height="87" fill="white" transform="translate(214 142.5)"/>
</clipPath>
</defs>
</svg>
