<svg width="259" height="203" viewBox="0 0 259 203" fill="none" xmlns="http://www.w3.org/2000/svg">
<rect opacity="0.2" x="151" width="24" height="180" fill="#E4E4E4"/>
<g clip-path="url(#clip0)">
<circle cx="163" cy="60" r="4" fill="#6C5DD3"/>
<circle cx="163" cy="60" r="2" fill="white"/>
<path d="M159 44L161.586 46.5858C162.367 47.3668 163.633 47.3668 164.414 46.5858L167 44H159Z" fill="#A4A5A6"/>
<rect x="135" y="16" width="57" height="28" rx="6" fill="#A4A5A6"/>
<path d="M149.862 33.2457H154.372V35H156.006V33.2457H157.216V31.8377H156.006V25.5455H153.873L149.862 31.8839V33.2457ZM154.391 31.8377H151.616V31.7638L154.317 27.4844H154.391V31.8377ZM158.691 35H165.172V33.5689H161.054V33.5043L162.684 31.8469C164.521 30.0835 165.029 29.2248 165.029 28.1584C165.029 26.5749 163.741 25.4162 161.839 25.4162C159.965 25.4162 158.635 26.5795 158.635 28.3754H160.265C160.265 27.4105 160.874 26.8058 161.816 26.8058C162.716 26.8058 163.386 27.3551 163.386 28.2461C163.386 29.0355 162.906 29.5987 161.973 30.5451L158.691 33.7628V35ZM167.813 35.1016C168.358 35.1016 168.824 34.6491 168.829 34.0859C168.824 33.532 168.358 33.0795 167.813 33.0795C167.25 33.0795 166.793 33.532 166.797 34.0859C166.793 34.6491 167.25 35.1016 167.813 35.1016ZM173.708 35.1293C175.707 35.1293 177.101 33.772 177.101 31.8931C177.101 30.0742 175.836 28.7631 174.119 28.7631C173.353 28.7631 172.674 29.0678 172.323 29.4833H172.268L172.54 26.9766H176.607V25.5455H171.123L170.629 30.4205L172.176 30.6744C172.494 30.3235 173.094 30.0881 173.662 30.0927C174.701 30.0973 175.449 30.8636 175.444 31.9347C175.449 32.9918 174.719 33.7443 173.708 33.7443C172.854 33.7443 172.166 33.2042 172.106 32.4286H170.444C170.491 33.9982 171.862 35.1293 173.708 35.1293Z" fill="white"/>
</g>
<path d="M37 166.562C37 166.562 46.7342 124.281 72.5958 124.281C98.4573 124.281 90.9856 166.562 108.192 166.562C125.397 166.562 136.738 98.1846 164 98.1846C184.516 98.1846 192 146.895 221.5 146.895C246 146.895 240.857 103.5 258 103.5" stroke="#A0D7E7" stroke-width="2" stroke-linecap="round"/>
<path d="M37 166.562C37 166.562 51.7437 132.281 71 132.281C90.2563 132.281 88.1518 153 107.817 153C127.481 153 136 73 164 73C192 73 198.014 146.895 221.5 146.895C239.797 146.895 244.476 119.781 258 119.781" stroke="#6C5DD3" stroke-width="2" stroke-linecap="round"/>
<g clip-path="url(#clip1)">
<path d="M4.30256 41.1293C6.34304 41.1431 7.71413 39.7397 7.70952 37.87C7.71413 36.0835 6.43999 34.7908 4.78267 34.7908C3.76705 34.7908 2.87145 35.2848 2.41903 36.0973H2.3544C2.35902 34.1076 3.08842 32.8981 4.3995 32.8981C5.212 32.8981 5.76136 33.369 5.93679 34.0938H7.6218C7.41868 32.5657 6.18608 31.4162 4.3995 31.4162C2.1282 31.4162 0.692472 33.3089 0.692472 36.5405C0.687855 40.0075 2.48828 41.12 4.30256 41.1293ZM4.29332 39.7443C3.28232 39.7443 2.54368 38.9087 2.53906 37.9208C2.5483 36.9283 3.31463 36.0973 4.31641 36.0973C5.31818 36.0973 6.0522 36.8913 6.04759 37.907C6.0522 38.9411 5.2951 39.7443 4.29332 39.7443ZM12.7646 41.18C15.0451 41.1847 16.407 39.3842 16.407 36.282C16.407 33.1982 15.0359 31.4162 12.7646 31.4162C10.4933 31.4162 9.12678 33.1935 9.12216 36.282C9.12216 39.3796 10.484 41.18 12.7646 41.18ZM12.7646 39.7351C11.5874 39.7351 10.8487 38.5533 10.8533 36.282C10.858 34.0291 11.592 32.8427 12.7646 32.8427C13.9418 32.8427 14.6758 34.0291 14.6804 36.282C14.6804 38.5533 13.9464 39.7351 12.7646 39.7351Z" fill="#808191"/>
<path d="M0.669389 88.2457H5.17969V90H6.81392V88.2457H8.02344V86.8377H6.81392V80.5455H4.68111L0.669389 86.8839V88.2457ZM5.19815 86.8377H2.42365V86.7638L5.12429 82.4844H5.19815V86.8377ZM12.9931 90.18C15.2736 90.1847 16.6355 88.3842 16.6355 85.282C16.6355 82.1982 15.2644 80.4162 12.9931 80.4162C10.7218 80.4162 9.35529 82.1935 9.35067 85.282C9.35067 88.3796 10.7125 90.18 12.9931 90.18ZM12.9931 88.7351C11.8159 88.7351 11.0772 87.5533 11.0819 85.282C11.0865 83.0291 11.8205 81.8427 12.9931 81.8427C14.1703 81.8427 14.9043 83.0291 14.9089 85.282C14.9089 87.5533 14.1749 88.7351 12.9931 88.7351Z" fill="#808191"/>
<path d="M0.840199 140H7.32173V138.569H3.20384V138.504L4.83345 136.847C6.67081 135.083 7.17862 134.225 7.17862 133.158C7.17862 131.575 5.89062 130.416 3.98864 130.416C2.11435 130.416 0.784801 131.58 0.784801 133.375H2.41442C2.41442 132.411 3.02379 131.806 3.96555 131.806C4.86577 131.806 5.53516 132.355 5.53516 133.246C5.53516 134.036 5.05504 134.599 4.12251 135.545L0.840199 138.763V140ZM12.4091 140.18C14.6896 140.185 16.0515 138.384 16.0515 135.282C16.0515 132.198 14.6804 130.416 12.4091 130.416C10.1378 130.416 8.77131 132.194 8.76669 135.282C8.76669 138.38 10.1286 140.18 12.4091 140.18ZM12.4091 138.735C11.2319 138.735 10.4933 137.553 10.4979 135.282C10.5025 133.029 11.2365 131.843 12.4091 131.843C13.5863 131.843 14.3203 133.029 14.3249 135.282C14.3249 137.553 13.5909 138.735 12.4091 138.735Z" fill="#808191"/>
<path d="M4.33487 199.18C6.61541 199.185 7.97727 197.384 7.97727 194.282C7.97727 191.198 6.60618 189.416 4.33487 189.416C2.06357 189.416 0.697088 191.194 0.692472 194.282C0.692472 197.38 2.05433 199.18 4.33487 199.18ZM4.33487 197.735C3.15767 197.735 2.41903 196.553 2.42365 194.282C2.42827 192.029 3.16229 190.843 4.33487 190.843C5.51207 190.843 6.24609 192.029 6.25071 194.282C6.25071 196.553 5.51669 197.735 4.33487 197.735Z" fill="#808191"/>
</g>
<path d="M35.3807 194.273C35.3807 191.217 33.5156 189.416 31.0366 189.416C28.5529 189.416 26.6925 191.217 26.6925 194.273C26.6925 197.324 28.5529 199.129 31.0366 199.129C33.5156 199.129 35.3807 197.329 35.3807 194.273ZM33.6587 194.273C33.6587 196.424 32.5785 197.592 31.0366 197.592C29.4993 197.592 28.4144 196.424 28.4144 194.273C28.4144 192.121 29.4993 190.953 31.0366 190.953C32.5785 190.953 33.6587 192.121 33.6587 194.273ZM40.0191 199.138C41.801 199.138 42.9367 198.081 43.0567 196.576H41.4594C41.3163 197.338 40.767 197.777 40.0329 197.777C38.9896 197.777 38.3156 196.904 38.3156 195.455C38.3156 194.023 39.0035 193.165 40.0329 193.165C40.8362 193.165 41.3302 193.682 41.4594 194.365H43.0567C42.9413 192.828 41.741 191.817 40.0099 191.817C37.9324 191.817 36.6214 193.317 36.6214 195.482C36.6214 197.629 37.9001 199.138 40.0191 199.138ZM47.9698 191.909H46.571V190.21H44.8999V191.909H43.8935V193.202H44.8999V197.144C44.8906 198.478 45.8601 199.134 47.1158 199.097C47.5913 199.083 47.919 198.991 48.0991 198.931L47.8175 197.624C47.7251 197.647 47.5359 197.689 47.3281 197.689C46.908 197.689 46.571 197.541 46.571 196.867V193.202H47.9698V191.909Z" fill="#808191"/>
<path d="M89.2323 189.545V199H90.8758V192.491H90.9635L93.5764 198.972H94.8044L97.4173 192.505H97.5051V199H99.1485V189.545H97.0526L94.2458 196.396H94.135L91.3282 189.545H89.2323ZM102.98 199.143C104.093 199.143 104.758 198.621 105.062 198.026H105.118V199H106.724V194.254C106.724 192.38 105.196 191.817 103.843 191.817C102.352 191.817 101.207 192.482 100.838 193.774L102.399 193.996C102.565 193.511 103.036 193.096 103.853 193.096C104.628 193.096 105.053 193.493 105.053 194.19V194.217C105.053 194.697 104.55 194.721 103.299 194.854C101.923 195.002 100.607 195.413 100.607 197.01C100.607 198.404 101.628 199.143 102.98 199.143ZM103.414 197.915C102.717 197.915 102.218 197.597 102.218 196.983C102.218 196.341 102.777 196.073 103.525 195.967C103.964 195.907 104.841 195.796 105.058 195.621V196.456C105.058 197.246 104.421 197.915 103.414 197.915ZM108.405 199H110.076V194.831C110.076 193.931 110.754 193.294 111.673 193.294C111.955 193.294 112.305 193.345 112.449 193.391V191.854C112.296 191.826 112.033 191.808 111.848 191.808C111.036 191.808 110.357 192.269 110.099 193.091H110.025V191.909H108.405V199Z" fill="#808191"/>
<path d="M158.87 189.545V196.193C158.865 197.19 158.403 197.721 157.582 197.721C156.815 197.721 156.303 197.255 156.289 196.489H154.586C154.586 198.234 155.86 199.129 157.517 199.129C159.341 199.129 160.564 198.021 160.569 196.193V189.545H158.87ZM166.872 196.018C166.872 197.098 166.101 197.634 165.363 197.634C164.559 197.634 164.024 197.066 164.024 196.165V191.909H162.353V196.424C162.353 198.127 163.322 199.092 164.716 199.092C165.778 199.092 166.526 198.534 166.849 197.74H166.923V199H168.544V191.909H166.872V196.018ZM171.933 189.545H170.262V199H171.933V189.545Z" fill="#808191"/>
<path d="M210.705 199L211.485 196.669H215.04L215.825 199H217.653L214.32 189.545H212.206L208.877 199H210.705ZM211.947 195.293L213.226 191.484H213.3L214.578 195.293H211.947ZM223.344 196.018C223.344 197.098 222.573 197.634 221.834 197.634C221.031 197.634 220.496 197.066 220.496 196.165V191.909H218.824V196.424C218.824 198.127 219.794 199.092 221.188 199.092C222.25 199.092 222.998 198.534 223.321 197.74H223.395V199H225.015V191.909H223.344V196.018ZM229.817 201.807C231.733 201.807 233.146 200.93 233.146 199.115V191.909H231.498V193.082H231.406C231.152 192.569 230.621 191.817 229.37 191.817C227.731 191.817 226.443 193.1 226.443 195.431C226.443 197.744 227.731 198.898 229.365 198.898C230.579 198.898 231.147 198.248 231.406 197.726H231.489V199.069C231.489 200.113 230.796 200.542 229.845 200.542C228.839 200.542 228.396 200.066 228.192 199.651L226.688 200.016C226.992 201.008 228.012 201.807 229.817 201.807ZM229.831 197.587C228.728 197.587 228.146 196.729 228.146 195.422C228.146 194.134 228.719 193.188 229.831 193.188C230.907 193.188 231.498 194.079 231.498 195.422C231.498 196.775 230.898 197.587 229.831 197.587Z" fill="#808191"/>
<defs>
<clipPath id="clip0">
<rect width="56" height="48" fill="white" transform="translate(135 16)"/>
</clipPath>
<clipPath id="clip1">
<rect width="17" height="176" fill="white" transform="translate(0 27)"/>
</clipPath>
</defs>
</svg>
